<svg width="1200" height="630" xmlns="http://www.w3.org/2000/svg">
  <!-- Background -->
  <defs>
    <linearGradient id="bgGradient" x1="0%" y1="0%" x2="100%" y2="100%">
      <stop offset="0%" style="stop-color:#f0f9ff;stop-opacity:1" />
      <stop offset="100%" style="stop-color:#e0f2fe;stop-opacity:1" />
    </linearGradient>
  </defs>
  <rect width="1200" height="630" fill="url(#bgGradient)"/>

  <!-- Main content area -->
  <rect x="100" y="100" width="450" height="430" rx="8" fill="#ffffff" stroke="#e2e8f0" stroke-width="2"/>
  <text x="325" y="140" font-family="Arial, sans-serif" font-size="16" font-weight="bold" fill="#1e293b" text-anchor="middle">Daily Planner</text>
  <line x1="120" y1="160" x2="530" y2="160" stroke="#cbd5e1" stroke-width="1"/>
  <text x="120" y="190" font-family="monospace" font-size="12" fill="#475569">08:00 - Morning workout</text>
  <text x="120" y="215" font-family="monospace" font-size="12" fill="#475569">09:00 - Client meeting</text>
  <text x="120" y="240" font-family="monospace" font-size="12" fill="#475569">10:30 - Deep work session</text>
  <text x="120" y="265" font-family="monospace" font-size="12" fill="#475569">12:00 - Lunch break</text>
  <text x="120" y="290" font-family="monospace" font-size="12" fill="#475569">13:00 - Team sync</text>
  <rect x="490" y="180" width="20" height="20" rx="3" fill="#10b981"/>
  <rect x="490" y="205" width="20" height="20" rx="3" fill="#10b981"/>
  <rect x="490" y="230" width="20" height="20" rx="3" fill="#f59e0b"/>

  <!-- Supporting planners -->
  <rect x="580" y="100" width="260" height="170" rx="6" fill="#ffffff" stroke="#e2e8f0" stroke-width="2"/>
  <text x="710" y="130" font-family="Arial, sans-serif" font-size="14" font-weight="bold" fill="#1e293b" text-anchor="middle">Habit Tracker</text>
  <line x1="595" y1="145" x2="825" y2="145" stroke="#cbd5e1" stroke-width="1"/>
  <circle cx="620" cy="170" r="8" fill="#10b981"/>
  <circle cx="650" cy="170" r="8" fill="#10b981"/>
  <circle cx="680" cy="170" r="8" fill="#10b981"/>
  <circle cx="710" cy="170" r="8" fill="#e2e8f0" stroke="#cbd5e1"/>
  <text x="620" y="200" font-family="Arial, sans-serif" font-size="11" fill="#64748b">15 day streak</text>

  <rect x="580" y="290" width="260" height="170" rx="6" fill="#ffffff" stroke="#e2e8f0" stroke-width="2"/>
  <text x="710" y="320" font-family="Arial, sans-serif" font-size="14" font-weight="bold" fill="#1e293b" text-anchor="middle">Goal Tracker</text>
  <line x1="595" y1="335" x2="825" y2="335" stroke="#cbd5e1" stroke-width="1"/>
  <rect x="595" y="355" width="220" height="12" rx="6" fill="#e2e8f0"/>
  <rect x="595" y="355" width="132" height="12" rx="6" fill="#3b82f6"/>
  <text x="710" y="390" font-family="Arial, sans-serif" font-size="11" fill="#64748b">Launch product - 60%</text>

  <rect x="870" y="100" width="210" height="170" rx="6" fill="#ffffff" stroke="#e2e8f0" stroke-width="2"/>
  <text x="975" y="130" font-family="Arial, sans-serif" font-size="14" font-weight="bold" fill="#1e293b" text-anchor="middle">Weekly</text>
  <line x1="885" y1="145" x2="1065" y2="145" stroke="#cbd5e1" stroke-width="1"/>
  <text x="895" y="170" font-family="Arial, sans-serif" font-size="10" fill="#64748b">Mon Tue Wed Thu Fri</text>
  <rect x="895" y="180" width="25" height="50" rx="3" fill="#dbeafe" stroke="#3b82f6"/>
  <rect x="930" y="180" width="25" height="50" rx="3" fill="#dbeafe" stroke="#3b82f6"/>
  <rect x="965" y="180" width="25" height="50" rx="3" fill="#f0f9ff" stroke="#cbd5e1"/>

  <rect x="870" y="290" width="210" height="170" rx="6" fill="#ffffff" stroke="#e2e8f0" stroke-width="2"/>
  <text x="975" y="320" font-family="Arial, sans-serif" font-size="14" font-weight="bold" fill="#1e293b" text-anchor="middle">Monthly</text>
  <line x1="885" y1="335" x2="1065" y2="335" stroke="#cbd5e1" stroke-width="1"/>
  <text x="975" y="370" font-family="Arial, sans-serif" font-size="11" fill="#64748b" text-anchor="middle">March 2026</text>
  <circle cx="920" cy="400" r="4" fill="#3b82f6"/>
  <circle cx="945" cy="400" r="4" fill="#3b82f6"/>
  <circle cx="970" cy="400" r="4" fill="#10b981"/>
  <circle cx="995" cy="400" r="4" fill="#f59e0b"/>
  <circle cx="1020" cy="400" r="4" fill="#e2e8f0"/>

  <!-- Title -->
  <text x="600" y="560" font-family="Arial, sans-serif" font-size="32" font-weight="bold" fill="#0f172a" text-anchor="middle">Digital Planner Bundle</text>
  <text x="600" y="595" font-family="Arial, sans-serif" font-size="18" fill="#64748b" text-anchor="middle">5 Complete Planning Templates for Google Sheets</text>
</svg>